<mxfile host="app.diagrams.net" modified="2024-02-24T07:24:15.585Z" agent="Mozilla/5.0 (Windows NT 10.0; Win64; x64; rv:123.0) Gecko/20100101 Firefox/123.0" etag="GlnNl8aMji5oVOYuR4VC" version="23.1.6" type="device">
  <diagram name="Page-1" id="v0h3wBrNtxL3fG0EhbrY">
    <mxGraphModel dx="1434" dy="705" grid="1" gridSize="10" guides="1" tooltips="1" connect="1" arrows="1" fold="1" page="1" pageScale="1" pageWidth="850" pageHeight="1100" math="0" shadow="0">
      <root>
        <mxCell id="0" />
        <mxCell id="1" parent="0" />
      </root>
    </mxGraphModel>
  </diagram>
</mxfile>
